<svg width="18" height="18" viewBox="0 0 18 18" fill="none" xmlns="http://www.w3.org/2000/svg">
<path fill-rule="evenodd" clip-rule="evenodd" d="M8.89689 1.50004H9.10326C9.6998 1.49971 10.1428 1.49947 10.5265 1.60229C11.5618 1.8797 12.3704 2.68834 12.6479 3.72362C12.7096 3.9542 12.7342 4.20617 12.7439 4.5H14.1289C14.5243 4.49999 14.8653 4.49998 15.1463 4.52293C15.4428 4.54715 15.7377 4.60064 16.0215 4.74524C16.4448 4.96095 16.789 5.30516 17.0048 5.72852C17.1494 6.01231 17.2028 6.30722 17.2271 6.60373C17.25 6.88466 17.25 7.22572 17.25 7.62108V13.3789C17.25 13.7743 17.25 14.1153 17.2271 14.3963C17.2028 14.6928 17.1494 14.9877 17.0048 15.2715C16.789 15.6948 16.4448 16.0391 16.0215 16.2548C15.7377 16.3994 15.4428 16.4528 15.1463 16.4771C14.8654 16.5 14.5243 16.5 14.129 16.5H3.87111C3.47578 16.5 3.13464 16.5 2.85373 16.4771C2.55722 16.4528 2.26231 16.3994 1.97852 16.2548C1.55516 16.0391 1.21095 15.6948 0.995237 15.2715C0.850642 14.9877 0.797155 14.6928 0.772929 14.3963C0.749977 14.1154 0.749988 13.7743 0.750001 13.3789V7.62109C0.749988 7.22575 0.749977 6.88465 0.772929 6.60373C0.797155 6.30722 0.850642 6.01231 0.995237 5.72852C1.21095 5.30516 1.55516 4.96095 1.97852 4.74524C2.26231 4.60064 2.55722 4.54715 2.85373 4.52293C3.13466 4.49998 3.47573 4.49999 3.87109 4.5H5.25624C5.26594 4.20617 5.29051 3.9542 5.35229 3.72362C5.6297 2.68834 6.43834 1.8797 7.47362 1.60229C7.85735 1.49947 8.30035 1.49971 8.89689 1.50004ZM11.2427 4.5H6.75747C6.76436 4.30687 6.77731 4.20093 6.80118 4.11184C6.93988 3.59421 7.34421 3.18988 7.86184 3.05118C8.02855 3.00651 8.25431 3.00007 9.00007 3.00007C9.74584 3.00007 9.97159 3.00651 10.1383 3.05118C10.6559 3.18988 11.0603 3.59421 11.199 4.11184C11.2228 4.20093 11.2358 4.30687 11.2427 4.5Z" fill="#002F6C"/>
</svg>
