<svg width="12" height="12" viewBox="0 0 12 12" fill="none" xmlns="http://www.w3.org/2000/svg">
<path d="M3.69721 0.776393C3.61252 0.607001 3.43939 0.5 3.25 0.5C3.06061 0.5 2.88748 0.607001 2.80279 0.776393L2.41056 1.56085C2.26932 1.84334 2.22627 1.92463 2.17398 1.99247C2.12152 2.06052 2.06052 2.12152 1.99247 2.17398C1.92463 2.22628 1.84334 2.26932 1.56085 2.41056L0.776393 2.80279C0.607001 2.88748 0.5 3.06061 0.5 3.25C0.5 3.43939 0.607001 3.61252 0.776393 3.69721L1.56085 4.08944C1.84334 4.23068 1.92463 4.27373 1.99247 4.32602C2.06052 4.37848 2.12152 4.43948 2.17398 4.50753C2.22628 4.57537 2.26932 4.65666 2.41056 4.93915L2.80279 5.72361C2.88748 5.893 3.06061 6 3.25 6C3.43939 6 3.61252 5.893 3.69721 5.72361L4.08944 4.93915C4.23068 4.65666 4.27373 4.57537 4.32602 4.50753C4.37848 4.43948 4.43948 4.37848 4.50753 4.32602C4.57537 4.27373 4.65666 4.23068 4.93915 4.08944L5.72361 3.69721C5.893 3.61252 6 3.43939 6 3.25C6 3.06061 5.893 2.88748 5.72361 2.80279L4.93915 2.41056C4.65666 2.26932 4.57537 2.22627 4.50753 2.17398C4.43948 2.12152 4.37848 2.06052 4.32602 1.99247C4.27373 1.92463 4.23068 1.84334 4.08944 1.56085L3.69721 0.776393Z" fill="white"/>
<path d="M9.75 1.5C9.75 1.22386 9.52614 1 9.25 1C8.97386 1 8.75 1.22386 8.75 1.5V2.25H8C7.72386 2.25 7.5 2.47386 7.5 2.75C7.5 3.02614 7.72386 3.25 8 3.25H8.75V4C8.75 4.27614 8.97386 4.5 9.25 4.5C9.52614 4.5 9.75 4.27614 9.75 4V3.25H10.5C10.7761 3.25 11 3.02614 11 2.75C11 2.47386 10.7761 2.25 10.5 2.25H9.75V1.5Z" fill="white"/>
<path d="M3.25 8C3.25 7.72386 3.02614 7.5 2.75 7.5C2.47386 7.5 2.25 7.72386 2.25 8V8.75H1.5C1.22386 8.75 1 8.97386 1 9.25C1 9.52614 1.22386 9.75 1.5 9.75H2.25V10.5C2.25 10.7761 2.47386 11 2.75 11C3.02614 11 3.25 10.7761 3.25 10.5V9.75H4C4.27614 9.75 4.5 9.52614 4.5 9.25C4.5 8.97386 4.27614 8.75 4 8.75H3.25V8Z" fill="white"/>
<path d="M8.94721 5.77639C8.86252 5.607 8.68939 5.5 8.5 5.5C8.31061 5.5 8.13748 5.607 8.05279 5.77639L7.57722 6.72752C7.43598 7.01 7.39294 7.09129 7.34065 7.15914C7.28819 7.22719 7.22719 7.28819 7.15914 7.34065C7.09129 7.39294 7.01 7.43598 6.72752 7.57722L5.77639 8.05279C5.607 8.13748 5.5 8.31061 5.5 8.5C5.5 8.68939 5.607 8.86252 5.77639 8.94721L6.72752 9.42278C7.01 9.56402 7.09129 9.60706 7.15914 9.65936C7.22719 9.71181 7.28819 9.77281 7.34065 9.84086C7.39294 9.90871 7.43598 9.99 7.57722 10.2725L8.05279 11.2236C8.13748 11.393 8.31061 11.5 8.5 11.5C8.68939 11.5 8.86252 11.393 8.94721 11.2236L9.42278 10.2725C9.56402 9.99 9.60706 9.90871 9.65936 9.84086C9.71181 9.77281 9.77281 9.71181 9.84086 9.65936C9.90871 9.60706 9.99 9.56402 10.2725 9.42278L11.2236 8.94721C11.393 8.86252 11.5 8.68939 11.5 8.5C11.5 8.31061 11.393 8.13748 11.2236 8.05279L10.2725 7.57722C9.99 7.43598 9.90871 7.39294 9.84086 7.34065C9.77281 7.28819 9.71181 7.22719 9.65936 7.15914C9.60706 7.09129 9.56402 7.01 9.42278 6.72752L8.94721 5.77639Z" fill="white"/>
</svg>
